<?xml version="1.0" encoding="UTF-8"?>
<svg id="Lag_1" data-name="Lag 1" xmlns="http://www.w3.org/2000/svg" viewBox="0 0 806.76 592.66">
  <defs>
    <style>
      .cls-1, .cls-2, .cls-3 {
        fill: none;
      }

      .cls-4, .cls-5, .cls-2, .cls-6, .cls-7, .cls-8, .cls-3 {
        stroke: #000;
        stroke-miterlimit: 10;
      }

      .cls-4, .cls-2, .cls-7 {
        stroke-width: .25px;
      }

      .cls-9 {
        fill: #ffbffa;
      }

      .cls-5 {
        fill: #c69c6d;
      }

      .cls-6, .cls-8 {
        fill: red;
      }

      .cls-7 {
        fill: #ff7bac;
      }

      .cls-8 {
        stroke-width: 2px;
      }

      .cls-3 {
        stroke-width: 4px;
      }
    </style>
  </defs>
  <g>
    <circle class="cls-7" cx="172.55" cy="325.5" r="122.88"/>
    <ellipse class="cls-7" cx="341.01" cy="288.2" rx="125.96" ry="116.35"/>
    <circle class="cls-7" cx="224.18" cy="182.33" r="128.37"/>
    <ellipse class="cls-7" cx="413.13" cy="182.33" rx="126.92" ry="143.17"/>
    <ellipse class="cls-7" cx="479.47" cy="325.5" rx="138.46" ry="125"/>
    <rect class="cls-1" width="806.76" height="499.01"/>
    <polygon class="cls-5" points="218.51 373.4 444.67 375.25 331.77 591.58 218.51 373.4"/>
    <line class="cls-2" x1="286.24" y1="503.82" x2="351.01" y2="556.61"/>
    <line class="cls-2" x1="249.79" y1="436.2" x2="365.04" y2="527.84"/>
    <line class="cls-2" x1="224.18" y1="373.4" x2="382.17" y2="499.01"/>
    <line class="cls-2" x1="283.39" y1="374.93" x2="398.64" y2="466.57"/>
    <line class="cls-2" x1="341.01" y1="374.93" x2="413.13" y2="433.71"/>
    <line class="cls-2" x1="391.74" y1="374.38" x2="428.74" y2="404.54"/>
    <line class="cls-2" x1="243.1" y1="420.75" x2="273.18" y2="374.38"/>
    <line class="cls-2" x1="336.12" y1="376.41" x2="278.71" y2="482.67"/>
    <line class="cls-2" x1="413.13" y1="374.93" x2="313.62" y2="556.61"/>
    <line class="cls-2" x1="374.93" y1="374.93" x2="295.43" y2="521.58"/>
    <line class="cls-2" x1="307.41" y1="372.92" x2="258.14" y2="454.11"/>
    <path class="cls-4" d="M280.87,325.2c-1.85,6.42,2.86,14.77,9.05,18.53,15.54,9.44,45.08-7.12,58.53-28.59,5.7-9.09,10.95-22.94,6.88-26.32-4.37-3.63-14.54,8.94-40.95,20-19.98,8.37-31.18,8.31-33.51,16.37Z"/>
    <circle class="cls-6" cx="258.14" cy="236.54" r="15.38"/>
    <circle class="cls-6" cx="341.29" cy="234.99" r="13.84"/>
    <line class="cls-3" x1="232.37" y1="205.69" x2="278.71" y2="213.67"/>
    <line class="cls-3" x1="353.79" y1="191.12" x2="318.45" y2="214.12"/>
  </g>
  <path class="cls-6" d="M415.17,90.28c6.45-5.35,13.14-11.44,19.85-18.38,17.89-18.52,30.41-37.36,39.16-53.42-6.33,27.05-12.66,54.11-18.99,81.16l-40.01-9.36Z"/>
  <path class="cls-8" d="M196.18,98.57c-7.23-5.09-14.71-10.92-22.19-17.6-19.97-17.82-33.83-36.23-43.47-52,6.69,26.97,13.38,53.94,20.07,80.9l45.6-11.31Z"/>
  <ellipse class="cls-9" cx="153.63" cy="346.45" rx="42.77" ry="35.27"/>
  <ellipse class="cls-9" cx="479.47" cy="325.5" rx="42.77" ry="35.27"/>
</svg>