<?xml version="1.0" encoding="UTF-8"?>
<svg id="Lag_1" xmlns="http://www.w3.org/2000/svg" xmlns:xlink="http://www.w3.org/1999/xlink" version="1.1" viewBox="0 0 559.01 301.91">
  <!-- Generator: Adobe Illustrator 30.0.0, SVG Export Plug-In . SVG Version: 2.1.1 Build 123)  -->
  <defs>
    <style>
      .st0 {
        fill: #f5a5c0;
      }

      .st1 {
        fill: #d04d7e;
      }

      .st2 {
        fill: #d04d7b;
      }

      .st3 {
        fill: url(#Ikke-navngivet_forløb);
      }

      .st4 {
        fill: #ef9cb8;
      }

      .st5 {
        fill: #fbebf0;
      }

      .st6 {
        fill: #f0abc4;
      }

      .st7 {
        fill: #f49bbb;
      }

      .st8 {
        fill: #f1b3c9;
      }

      .st9 {
        fill: #f7c6d7;
      }

      .st10 {
        fill: #f6b8ce;
      }

      .st11 {
        fill: #fcf0f3;
      }

      .st12 {
        fill: #f5b2ca;
      }

      .st13 {
        fill: #eca3bb;
      }

      .st14 {
        fill: #f0a6c0;
      }

      .st15 {
        fill: #f38db4;
      }

      .st16 {
        fill: #fde7f0;
      }

      .st17 {
        fill: #e37098;
      }

      .st18 {
        fill: #fbcee0;
      }

      .st19 {
        fill: #fac9db;
      }

      .st20 {
        fill: #fdfcfc;
      }

      .st21 {
        fill: #fff;
      }

      .st22 {
        fill: #f9c6d9;
      }

      .st23 {
        fill: #f1a4bf;
      }

      .st24 {
        fill: #db658f;
      }

      .st25 {
        fill: #f7b3cb;
      }

      .st26 {
        fill: #f9b7d0;
      }

      .st27 {
        fill: #f9c0d6;
      }

      .st28 {
        fill: #fac8da;
      }

      .st29 {
        fill: #f8b0ca;
      }

      .st30 {
        fill: #fae4ed;
      }

      .st31 {
        fill: #e7769d;
      }

      .st32 {
        fill: #f8c4d7;
      }

      .st33 {
        fill: #f5abc7;
      }

      .st34 {
        fill: #fbe8f0;
      }

      .st35 {
        fill: #f4a4c0;
      }

      .st36 {
        fill: #fcdce9;
      }

      .st37 {
        fill: #facfdd;
      }
    </style>
    <linearGradient id="Ikke-navngivet_forløb" data-name="Ikke-navngivet forløb" x1="481.73" y1="884.96" x2="470.64" y2="750.05" gradientTransform="translate(0 943.17) scale(1 -1)" gradientUnits="userSpaceOnUse">
      <stop offset="0" stop-color="#ffeef5"/>
      <stop offset="1" stop-color="#f8d1e0"/>
    </linearGradient>
  </defs>
  <g id="Generativt_objekt">
    <g>
      <path class="st7" d="M196.3,58c-9.3,7.17-16.46,5.97-25.41,18.23-.63.87-2.13,2.13-2.76,3.04-1.83,2.62-.05,7.48-6.08,7.46.02-.05-.78.11-.55-.83s4.56-7.43,5.52-9.39c.6-1.23-.61-2.63-.55-2.76.86-1.91,6.01-7.53,7.73-9.39,1.93-2.08,8.58-6.04,7.73-8.29-4.26-.51-11.25,2.13-15.75,5.25-13.18,9.15-14.92,26.48-16.85,41.16.53.94,6.87-3.17,7.73-4.14,2.35-.56,3.05,1.61,3.59,3.31-.46-4.31,3.68-4.96,4.7-7.46.71-1.75-.79-10.31,5.52-8.01-1.4,2.6-3.66,7.2-4.42,9.94-1.53,1.34-2.17,3.27-3.31,4.97-1.44,2.13-6.03,6.39-6.63,7.46-.8,1.42-1.05,6.62-1.66,7.73-4.59,8.48-20.46-4.53-22.38,8.01-.02-2.21-1.25-3.29-1.93-.83-.32,1.15,2.21,2.05,2.21,2.21,0,.25-2.18,3.34-2.21,4.42-.05,2.3,1.85,3.85,1.66,7.73-.47,9.47-2.97,19.16-2.21,29.28.08,1.08,2.18,2.82,2.21,3.31.46,8.22-.35,17.71,0,24.86.15,3.04,1.52,8.59,1.66,10.5.18,2.58-1.26,7.25-1.1,8.84.07.76,3.26,4.15,3.31,4.42,1.11,5.16-6.29,12.66-1.1,16.57-8.49-1.42,1.35,3.47,4.97,2.49-3.25.2-9.91,1.22-9.12-3.31-4.36,7.03-11.93,12.5-19.89,14.92-3.64,1.1-18.07,2.14-18.78,2.76-.56.49.62,3.44-.55,4.42,1.01-6.76-7.04-4.14-11.88-4.42.28-5.69,4.3-4.21,5.8-5.52,2.58-2.24,5.38-6.74,7.73-9.39.06-.07.56,1.37,1.93-.28,2.95-3.53,13.84-20.99,14.36-24.31.32-2-.67-4.7-.28-6.91-1.22-.52-3.37,6.59-3.59,6.91-1.02,1.45-3.29,2.24-3.87,3.04-1-.13-1.16-4.46-1.1-4.7.24-1,4.82-7.79,4.97-8.29.37-1.22-.63-4.11-.55-4.42.29-1.23,1.63-2.34,1.66-2.49,4.67-1.94.06,6.73,1.1,7.46,3.86.3,1.9-4.82,2.21-6.08,2.19-9.02,1.36-8.12,1.66-16.57.04-1.26,1.65-5.24,1.66-5.52,0-.34-1.69-3.68-1.66-6.63.05-3.74,1.66-11.02,1.66-13.81,0-1.41-.8-11.08-1.1-11.6-.26-.45-2.63-1.12-3.31-2.76-.2-.47-.48-8.92-.55-10.22-1.25-24.02,1.76-27.96-10.5-50.28-1.84-3.35-2.93-7.66-5.8-9.94-.2-.16-1.14.25-1.93-.28-.19-.13.33-1.61-.28-1.93-.53-.28-2.8.28-3.31,0-2-1.11-4.08-2.96-6.08-3.87-2.91-1.33-5.68-.3-8.01-3.04-3.05-3.57-1.23-7.67-1.66-11.6-.03-.28-1.66-1.42-1.66-1.66,0-.72,10.06-9.54,10.77-9.67,1.15-.21.69,1.08,1.1,1.1,1.33.08,2.29-.62,2.76-.55.14.02,1.52,2.19,1.66,2.21,4.09.74,9.1-7.89,13.81-7.73,1.59.05,5.68,3.21,6.08,3.31.24.07,4.74-.64,4.97-.55,1.08.41.65,2.01,1.1,2.21.28.12,2.86-2.47,5.52-2.76,4.2-.45,12.93,2.72,17.68,2.76,5.44-2.95,7.61-6.93,14.36-7.18.49-.02.05,1.62.55,1.66.28.02,3.77-3.09,4.42-3.31,1.17-.41,13.33-3.69,14.36-3.87.62-.11,2.62,1.13,2.76,1.1,1.41-.2,6.15-2.08,7.73-2.21,4.01-.32,7.64,1.12,11.6,1.1.14,0,1.68-1.62,2.21-1.66,3.37-.22,4.96,1.47,6.63,1.66s6.26-1.32,7.73-.55c.33.17.54,2.54,1.1,2.76.43.17,4.97-2.62,8.84-1.1,2.33.91,2.55,4.23,2.76,4.42.37.33,7.06.67,5.25,6.35-.08.24-3.39,3.44-3.59,3.59-.13.1-2.57.11-3.31.55-.58.34.02,1.37-.55,1.66-.08.04-.69-.98-1.66-.55-5.43,2.38-6.47,1.79-11.05,3.31-1.13.38-4.41,2.72-6.08,3.31-1,.35-.83-1.21-1.1-1.1-3.19,1.25-7.25,3.14-8.56,6.35l8.56,1.93c.41,1.49-1.18,1.5-1.38,1.66l.05.02Z"/>
      <path class="st18" d="M97.96,80.1c12.26,22.31,9.24,26.26,10.5,50.28-2.13,4.6.48,13.85-3.87,16.3l.55,39.5c-1.27,1.94-1.96,12.93-3.87,17.4-2.45,5.76-20.77,26.03-26.24,27.9-1.14.39-2.8-.95-4.42-.55-.99.24-14.84,13.09-14.64,14.09,1.5,1.12,10.89,1.14,11.05,2.76-.67,2.13-5.31,4.11-5.52,4.42-1.88,2.69-4.76,10.34-7.18,13.26-.91,1.1-6.77,7.4-7.46,7.46-2.39.21-.84-1.7-1.66-2.21-2.66-1.66-6.03,4.83-7.73,6.08-3.4,2.49-7.94,3.11-11.6,4.97-.87.44-4.26,4.67-6.08,4.97-3.88.64-9.28-4.67-11.33,1.1-9.09-12.85-12.36-33.78-2.21-47.24,12.81-16.99,43.08-21.71,62.98-18.51.56.09,1.65.23,1.66-.55,3.8-.9,3.41-.99,7.18-1.1.42-.01.61-.1.55-.55,1.37-1.51,5.88-3.08,8.01-4.97,2.24-1.98,6.96-9.69,7.46-11.33.11-.36.49-5.57.55-6.35.48.06.5-.14.55-.55,3.18-27.04-.59-54.21-1.1-81.21,0-.64.3-1.62-.55-1.66-.92-3.91-1.57-8.17-2.21-12.15-.29-1.83,1.01-4.37-1.66-3.87-.21-.84-.35-2.07-.55-2.76-.58-2.01.89-1.6-1.1-3.31-.1-.08-1.72.12-2.49-.55-.36-.32-.79-2.96-3.59-3.59,1.17-1.12-6.66-4.59-6.63-5.52.57-1.96,7.31,3.49,3.31-1.93l1.1-1.66c1.42,1.11,2.32,2.62,3.59,3.87,4.5-3.54,9.51-2.52,14.64-2.21v-.03Z"/>
      <path class="st21" d="M163.15,166.29c0,.8-.39,2.49.55,2.76.69,74.99,59.17,24.78,95.3,56.91,9.45,8.41,13.27,17.82,11.88,30.39-5.17,4.19-3.69,9.54-5.52,14.36-1.71,4.5-4.71,7.19-7.73,10.5-.03.03-.65-.07-.55.55-.18.05-.41-.06-.55,0-.24.1-.63-.05-.55.55h-.55c2.67-4.09,1.01-3.89,1.1-6.91.03-1.13.72-6.86.55-7.18-.31-.59-1.13.2-1.66-.83,8.72-1.96,2.5-12.32-1.1-5.52-3.91-.29-3.76-7.46-4.14-7.73s-7.81-.34-9.39-.55c-5.56-.75-14.63-.25-19.61-1.1-.59-.1-3.75-.67-3.87-.83-.25-.35-.18-7.85-1.38-8.56s-25.22-.52-27.62-2.76c-.72-.67.04-3.13-.28-3.59-1.46-2.12-6.09-4.42-7.46-5.8-.65-.65.3-1.84-1.1-3.31-1.24-1.3-5.47-3.11-6.35-4.14-1.04-1.22-2.01-5.43-2.76-6.63-.46-.73-3.67-2.4-3.87-2.76s-.39-5.58-1.66-6.63-3.26,2.5-3.87.55c1.32-3.12-1.53-5.06-1.66-5.52-.43-1.51.59-2.63.55-2.76-.22-.72-1.59-.83-1.66-1.1-.62-2.42,1.94-3.47-1.66-6.08,1.19-5.45-.45-11.41,1.1-16.02-3.67-8.46-.96-15.47-2.76-24.86-.02-.1,1.16-1.57,1.1-1.66-.25-.37-2.86-.12-3.31-1.66-.74-2.49,5.73-6.86,1.66-8.29,1.24-4.97-.29-9.22,1.1-14.36,1.65-6.08,6.63-15.03,8.84-20.99.83-2.25.27-2.27-1.1-3.59,1.15-1.7,1.78-3.63,3.31-4.97-5.37,19.29-3.5,49.56-3.31,70.17v-.05Z"/>
      <path class="st28" d="M106.8,196.12c-.02.15-1.37,1.26-1.66,2.49-.07.31.92,3.2.55,4.42-.15.49-4.73,7.29-4.97,8.29-.06.23.1,4.56,1.1,4.7-3.14,4.41-5.55,9.72-9.39,14.09-3.28,3.73-7.87,6.14-11.05,9.94-.54.64.61,1.59.55,1.66-.79.98-4.9,6.13-5.25,6.35s-6.69-1.01-6.91,2.49c-.11,1.85,3.88,1.78,5.52,1.93.35,2.6.28,4.06-1.1,6.35-1.07,1.78-29.3,26.54-31.22,27.35-3.93,1.65-8.76.55-11.05,1.1-1.21.29-2.95,3.63-3.87,3.87-3.86.99-11.83-4.15-15.19,1.1-1.6-1.44-3.15-2.63-4.42-4.42,2.04-5.78,7.44-.46,11.33-1.1,1.82-.3,5.21-4.53,6.08-4.97,3.66-1.86,8.2-2.48,11.6-4.97,1.7-1.25,5.07-7.74,7.73-6.08.82.51-.73,2.42,1.66,2.21.69-.06,6.55-6.36,7.46-7.46,2.42-2.92,5.3-10.57,7.18-13.26.21-.3,4.86-2.29,5.52-4.42-.16-1.62-9.55-1.64-11.05-2.76-.2-1,13.65-13.84,14.64-14.09,1.62-.4,3.28.94,4.42.55,5.47-1.87,23.79-22.14,26.24-27.9,1.9-4.47,2.59-15.46,3.87-17.4.09-.14,2.26-2.52,2.76-1.93-1.66,3.74-.38,7.57-1.1,11.88h.02Z"/>
      <path class="st26" d="M170.89,85.63c-.08.14.08.41,0,.55-6.32-2.3-4.82,6.26-5.52,8.01-1.01,2.5-5.15,3.15-4.7,7.46-.54-1.7-1.25-3.87-3.59-3.31.93-1.05,2.6-6.54,2.76-6.91.32-.71,2.62-2.23,2.76-2.76.29-1.09-.67-1.65-.55-1.93,6.03.02,4.25-4.84,6.08-7.46.63-.91,2.13-2.17,2.76-3.04.19,3.49-5.1,9.48,0,9.39h0Z"/>
      <path class="st21" d="M265.36,270.71c1.83-4.82.35-10.17,5.52-14.36-.56,5.06-1.51,10.78-5.52,14.36Z"/>
      <path class="st30" d="M91.33,101.65c-.66-.93-1.39-2.79-1.66-3.87,2.66-.5,1.36,2.03,1.66,3.87Z"/>
      <path class="st30" d="M89.12,95.02l-1.1-3.31c2,1.72.53,1.31,1.1,3.31Z"/>
      <path class="st21" d="M163.7,169.05c-.94-.28-.55-1.96-.55-2.76.94.28.55,1.96.55,2.76Z"/>
      <path class="st30" d="M94.09,115.46c-.95-.06-.42-1.08-.55-1.66.85.04.54,1.02.55,1.66Z"/>
      <path class="st22" d="M221.16,252.48c-2.06,1.44-4.91.59-7.46.55-.42,0-.14-1.1-.55-1.1-1.96-.02-1.29,1.12-1.66,1.1-20.56-.94-43.94.7-56.91-19.89-6.36,2.92-7.49,4.53-14.64,4.97-3.62.98-13.46-3.91-4.97-2.49-5.18-3.92,2.22-11.42,1.1-16.57-.06-.27-3.24-3.66-3.31-4.42-.16-1.59,1.29-6.26,1.1-8.84-.13-1.91-1.51-7.46-1.66-10.5-.35-7.15.46-16.65,0-24.86-.03-.49-2.13-2.23-2.21-3.31-.76-10.12,1.74-19.81,2.21-29.28.19-3.89-1.71-5.44-1.66-7.73.03-1.08,2.21-4.17,2.21-4.42,0-.16-2.53-1.06-2.21-2.21.68-2.46,1.91-1.38,1.93.83,1.92-12.54,17.78.47,22.38-8.01.6-1.11.86-6.31,1.66-7.73.6-1.07,5.19-5.32,6.63-7.46,1.38,1.32,1.94,1.34,1.1,3.59-2.21,5.96-7.19,14.91-8.84,20.99-1.4,5.14.14,9.39-1.1,14.36,4.07,1.42-2.39,5.79-1.66,8.29.45,1.54,3.07,1.29,3.31,1.66.06.08-1.12,1.56-1.1,1.66,1.81,9.4-.91,16.4,2.76,24.86-1.56,4.61.09,10.58-1.1,16.02,3.6,2.61,1.04,3.66,1.66,6.08.07.27,1.44.38,1.66,1.1.04.14-.98,1.26-.55,2.76.13.47,2.98,2.4,1.66,5.52.61,1.95,2.65-1.56,3.87-.55s1.46,6.28,1.66,6.63,3.41,2.03,3.87,2.76c.76,1.2,1.72,5.41,2.76,6.63.88,1.04,5.12,2.84,6.35,4.14,1.4,1.47.46,2.66,1.1,3.31,1.37,1.38,6,3.68,7.46,5.8.31.46-.44,2.92.28,3.59,2.4,2.24,26.43,2.05,27.62,2.76s1.13,8.21,1.38,8.56c.11.16,3.28.73,3.87.83v.02Z"/>
      <path class="st15" d="M162.05,86.73c-.12.28.84.84.55,1.93-.14.53-2.44,2.06-2.76,2.76-.17.37-1.83,5.86-2.76,6.91-.86.98-7.21,5.08-7.73,4.14,1.93-14.68,3.67-32.01,16.85-41.16,4.5-3.12,11.49-5.76,15.75-5.25.84,2.25-5.81,6.21-7.73,8.29-1.73,1.86-6.87,7.48-7.73,9.39-.06.13,1.16,1.53.55,2.76-.96,1.96-5.29,8.45-5.52,9.39s.57.78.55.83h-.02Z"/>
      <path class="st29" d="M106.8,196.12c.72-4.31-.55-8.14,1.1-11.88-.5-.58-2.67,1.79-2.76,1.93l-.55-39.5c4.35-2.45,1.74-11.7,3.87-16.3.07,1.3.36,9.75.55,10.22.68,1.64,3.06,2.31,3.31,2.76.3.52,1.11,10.2,1.1,11.6,0,2.79-1.61,10.08-1.66,13.81-.04,2.95,1.67,6.29,1.66,6.63,0,.29-1.61,4.26-1.66,5.52-.3,8.45.54,7.55-1.66,16.57-.31,1.26,1.65,6.38-2.21,6.08-1.05-.73,3.57-9.4-1.1-7.46v.02Z"/>
      <path class="st25" d="M79.73,252.48c-1.45-.08-2.98.14-4.42,0-1.64-.16-5.64-.08-5.52-1.93.21-3.49,6.56-2.27,6.91-2.49s4.46-5.38,5.25-6.35c.05-.07-1.09-1.01-.55-1.66,3.18-3.81,7.77-6.21,11.05-9.94,3.84-4.37,6.25-9.68,9.39-14.09.57-.8,2.85-1.59,3.87-3.04.22-.32,2.38-7.43,3.59-6.91-.39,2.21.59,4.91.28,6.91-.53,3.32-11.41,20.78-14.36,24.31-1.37,1.64-1.87.2-1.93.28-2.35,2.66-5.16,7.15-7.73,9.39-1.51,1.31-5.52-.17-5.8,5.52h-.03Z"/>
      <path class="st11" d="M255.41,267.39c-.76-1.47-3.04-1.89-1.1-5.52,3.61-6.8,9.83,3.56,1.1,5.52Z"/>
      <g>
        <path class="st8" d="M221.16,252.48c4.99.85,14.05.36,19.61,1.1,1.58.21,9.01.28,9.39.55s.23,7.45,4.14,7.73c-1.93,3.63.34,4.06,1.1,5.52.53,1.02,1.35.24,1.66.83.17.32-.52,6.06-.55,7.18-.09,3.01,1.57,2.81-1.1,6.91.25,1.18.52.02.55,0,.13-.08.64.08.55-.55.14-.06.37.05.55,0,.77-.21.51-.56.55-.55.38.06.84-.2,1.1.28.02,1.21-8.68,8.28-10.22,9.12-16.07,8.74-58.94,3.57-79,3.87-31.35.47-64.08,3.32-94.47,4.97-20.47,1.11-45.4,7.87-62.15-7.18,3.36-5.26,11.34-.12,15.19-1.1.91-.23,2.66-3.58,3.87-3.87,2.29-.55,7.12.55,11.05-1.1,1.91-.8,30.14-25.57,31.22-27.35,1.38-2.3,1.45-3.76,1.1-6.35,1.44.14,2.97-.08,4.42,0,4.83.28,12.89-2.34,11.88,4.42,1.17-.98,0-3.93.55-4.42.71-.63,15.15-1.66,18.78-2.76,7.96-2.42,15.53-7.89,19.89-14.92-.79,4.54,5.86,3.51,9.12,3.31,7.15-.44,8.28-2.05,14.64-4.97,12.96,20.58,36.34,18.95,56.91,19.89.37.02-.3-1.12,1.66-1.1.42,0,.14,1.1.55,1.1,2.54.04,5.4.88,7.46-.55h0Z"/>
        <path class="st13" d="M126.96,286.18c.64-.05,1.29.6,1.93.83-4.6,3.81-10.2,3.78-16.02,3.31,1.97-3.96,6.87-1.7,8.56-1.93.63-.09,5.23-2.19,5.52-2.21h.01Z"/>
        <path class="st35" d="M71.71,278.44c.43,0,.43,2.76,0,2.76-.48-.45-.39-2.76,0-2.76Z"/>
      </g>
      <g>
        <path class="st26" d="M198.51,59.66l-2.21-1.66c.2-.16,1.8-.16,1.38-1.66l-8.56-1.93c1.32-3.22,5.38-5.1,8.56-6.35.27-.11.11,1.46,1.1,1.1,1.67-.59,4.95-2.94,6.08-3.31,4.58-1.53,5.62-.93,11.05-3.31.97-.43,1.58.59,1.66.55.58-.29-.03-1.31.55-1.66.75-.44,3.18-.45,3.31-.55.2-.15,3.51-3.35,3.59-3.59,1.81-5.68-4.88-6.02-5.25-6.35-.21-.19-.44-3.51-2.76-4.42-3.86-1.51-8.41,1.28-8.84,1.1-.56-.22-.78-2.59-1.1-2.76-1.47-.77-6.07.73-7.73.55s-3.26-1.88-6.63-1.66c-.53.03-2.07,1.66-2.21,1.66-3.96.01-7.59-1.43-11.6-1.1-1.59.13-6.33,2.01-7.73,2.21-.15.02-2.14-1.21-2.76-1.1-1.03.18-13.2,3.46-14.36,3.87-.65.23-4.14,3.33-4.42,3.31-.5-.03-.06-1.68-.55-1.66-6.76.25-8.93,4.23-14.36,7.18-4.75-.04-13.48-3.22-17.68-2.76-2.67.29-5.24,2.89-5.52,2.76-.45-.2-.02-1.8-1.1-2.21-.23-.09-4.73.62-4.97.55-.4-.11-4.49-3.26-6.08-3.31-4.71-.16-9.72,8.48-13.81,7.73-.14-.02-1.52-2.19-1.66-2.21-.47-.07-1.43.63-2.76.55-.42-.03.05-1.31-1.1-1.1-.71.13-10.76,8.94-10.77,9.67,0,.24,1.63,1.38,1.66,1.66.42,3.93-1.39,8.03,1.66,11.6,2.33,2.73,5.1,1.71,8.01,3.04,2,.91,4.07,2.76,6.08,3.87.51.28,2.79-.28,3.31,0,.6.32.09,1.81.28,1.93.79.53,1.74.12,1.93.28,2.87,2.28,3.96,6.59,5.8,9.94-5.13-.31-10.14-1.33-14.64,2.21-1.27-1.24-2.17-2.76-3.59-3.87-2.66-2.08-15.98-9.96-18.51-9.39-.45.1-1.19,1.71-3.04,2.21-4.63,1.24-3.59-2.77-3.87-3.04-1.28-1.22-15.33-3.61-18.51-4.7C-4.28,49.83,23.35,5.2,56.83,7.18c38.65-.5,79.76,4.45,115.47-4.97,21.97-2.49,57.13-5.75,75.69,8.29,7.39,5.59,13.84,17.37,8.56,26.24-7.61,12.79-43.32,15.24-58.01,22.93h-.03Z"/>
        <path class="st16" d="M195.47,7.17c10.99-.4,39.58-.62,45.03,11.33,6.56,14.39-12.87,3.5-18.51,2.49-28.83-5.18-61.62,3.7-90.05,6.08-18.72,1.56-37.47,1.05-56.35,2.21-6.82.42-30.27,4.6-34.81,3.31-6.37-1.8-1.23-11.55,2.21-14.36,10.61-8.68,67.1-3.73,83.98-4.42,22.85-.93,45.72-5.8,68.51-6.63h-.01Z"/>
      </g>
    </g>
    <g>
      <g>
        <path class="st6" d="M407.35,60.21c.47,1.61.59,5.36,2.49,6.08,1.24.47,2.89-.6,3.04-.55,4.9,1.45,3.07,2.37,4.42,5.25.65,1.38,2.09,1.5,2.21,2.76.23,2.39-11.44,21.46-13.26,25.41-10.08,21.93-20.51,65.3-7.73,87.84,1.78,3.14,4.44,2.27,4.7,2.49.24.2,3.3,4.5,3.59,4.97,16.34,26.7,29.85,68.06.28,90.05-36.59,27.21-79.78,3.21-84.81-39.78-.16-1.32,1.62-4.71,1.66-4.97,1.95,3.94-.7,4.23-.55,8.01.39,10.07,7.03,18.86,12.71,26.52,1.78.85,2.84,2.45,4.42,3.59.25.18.67,1.83,1.66.83-.32-.87-1.6-.75-1.66-.83-1.24-1.65-6.76-8-6.08-9.67,5.32-6,12.33-.82,16.3-3.04,3.27-1.83.68-16.32.28-20.17-.85-8.13-2.12-16.59-2.76-25.14,1.12-3.55,4.96-2.95,5.52-4.7.59-1.83-1.12-3.67-1.1-3.87.39-5.3,2.98-14.47,2.76-19.34-.34-7.76-2.25-18.72-2.21-25.97.02-2.86,2.23-6.6,4.7-8.56-.27,4.13,2.41,2.15,3.04,3.04.18.26.06,5.46,0,6.35,0,.11-.48,1-.55,2.21-.16,2.79-.68,5.39-.55,8.29.06,1.42-.66,3.27.83,4.42.46-1.1-.83-3.65-.83-4.42,0-2.52.44-5.65.55-8.29,0-.11.5-.95.55-2.21.07-1.57,1.23-5.35.55-6.91-.46-1.05-3.65,1.9-2.76-6.08.08-.71,2.7-6.24,2.76-6.63.33-2-1.23-4.19-1.1-4.97.1-.65,2.18-2.06,2.21-2.21.36-1.92-.67-6.03-.55-6.63.05-.26,1.53-1.62,1.66-2.21.23-1.1-1.21-.78-1.1-1.1.53-1.57,3.36-3.84,3.87-5.52.11-.35-.95-1.95-.55-3.31,1.24-4.21,4.59-7.64,2.21-12.71l6.63-10.5c-3.95-2.08.91-4.99,1.66-7.18.32-.95.45-5.27.55-5.52.61-1.58,4.37-5.71,4.42-6.08.12-.83-3.78-.54-.55-5.52.89-1.38,4.01-2.93,4.97-4.42,1.58-2.46,4.61-10.88,6.63-12.71,2.25-2.04,3.76-1.09,4.14-1.38.36-.27,1.63-3.37,3.87-4.42.22-.1,2.66.47,4.14-.83.64,3.02.4,8.14,2.76,10.22l-.04.02Z"/>
        <path class="st9" d="M412.87,14.36l-.55.55c-2.03-2.49-7.71-2.88-10.22-4.42-7.42,3.96-1.82,12.83,4.7,13.81-1.3.3-2.83,1.66-4.42,1.66-.66-.38-4.32-2.16-4.7-2.21-.65-.09-10.51.41-11.05.55-5.08,1.33-6.84,12.99-12.98,11.88l-12.15,40.33c-.6,5.67-2.08,11.3-3.31,16.85-9.3,41.94-13.22,83.2-9.94,126.52.65,8.55,1.92,17,2.76,25.14.4,3.85,2.99,18.34-.28,20.17-3.96,2.22-10.98-2.97-16.3,3.04-.69,1.67,4.84,8.02,6.08,9.67-1.58-1.14-2.64-2.74-4.42-3.59-5.68-7.66-12.31-16.45-12.71-26.52-.15-3.78,2.5-4.07.55-8.01,2.03-15.46.21-38.36,1.1-55.25.05-.91-.05-1.85,0-2.76v-.55c.13-2.17.62-8.75,1.1-10.5.7.02.61-.56.55-1.1-.3-2.99-1.05-4.57,0-7.73.02-.05,1.48-.5,0-1.1v-3.87c0-.91-.04-1.85,0-2.76,1.41-.31,1.13-1.78.55-2.76.06-1.65-.08-3.33,0-4.97.88-3.75,1.06-7.76,1.1-11.6,0-.03,1.17-.28,0-.55,0-.18-.01-.37,0-.55.76.02.53-.57.55-1.1.61-12.75,1.65-25.48,3.31-38.12.41.06.62-.14.55-.55-.64-3.78-.29-8.35,0-12.15.48.06.5-.14.55-.55.31-2.6-.59-5.18.55-7.73.39.07.64-.17.55-.55-.92-3.97-.37-13.64,0-17.96,2.03-23.56,16.35-51.69,43.92-51.66,7.23,0,28.44,4.16,33.7,8.29,1.53,1.2.72,2.67.83,2.76l.03-.05Z"/>
        <path class="st34" d="M323.92,239.77c-.03.26-1.82,3.65-1.66,4.97-1.46-12.51-2.36-25.19-1.66-37.84.41-7.38.46-16.21,4.42-22.38-.9,16.88.93,39.79-1.1,55.25Z"/>
        <path class="st37" d="M420.05,20.43c-.67,1.08-.77,2.68-.55,3.87-3.28-.94-11.31,3.79-13.26,6.08-7.31-3.94-1.17-.78-1.1-3.04.04-1.18-1.48-.65-2.76-1.38,1.59,0,3.12-1.36,4.42-1.66,2.54-.59,5.13.85,7.18-2.49.54-1.71-.52-5.52-1.66-6.91l.55-.55c2.41,1.97,5.04,3.8,7.18,6.08Z"/>
        <path class="st21" d="M327.24,146.4c.21-4.12-.34-7.53,1.1-11.6-.04,3.85-.23,7.85-1.1,11.6Z"/>
        <path class="st21" d="M326.68,154.13c.05-1.13.55-2.62.55-2.76.57.98.86,2.45-.55,2.76Z"/>
        <path class="st34" d="M325.03,181.76c.01-.18-.01-.37,0-.55v.55Z"/>
        <path class="st12" d="M403.48,39.77c.05,4.6,2.52,15.8,3.87,20.44-2.36-2.08-2.13-7.2-2.76-10.22-1.48,1.29-3.92.73-4.14.83-2.24,1.05-3.51,4.15-3.87,4.42-.39.29-1.89-.66-4.14,1.38-2.02,1.83-5.05,10.25-6.63,12.71-.96,1.49-4.08,3.04-4.97,4.42-3.22,4.99.67,4.7.55,5.52-.05.37-3.81,4.5-4.42,6.08-.1.26-.23,4.57-.55,5.52-.74,2.2-5.6,5.1-1.66,7.18l-6.63,10.5c2.38,5.07-.97,8.5-2.21,12.71-.4,1.36.66,2.97.55,3.31-.51,1.68-3.34,3.95-3.87,5.52-.11.32,1.34,0,1.1,1.1-.13.59-1.61,1.95-1.66,2.21-.12.6.92,4.71.55,6.63-.03.15-2.11,1.56-2.21,2.21-.12.78,1.43,2.97,1.1,4.97-.06.39-2.68,5.92-2.76,6.63-.89,7.98,2.31,5.03,2.76,6.08.67,1.55-.48,5.33-.55,6.91.06-.89.18-6.09,0-6.35-.63-.89-3.31,1.09-3.04-3.04-2.46,1.96-4.68,5.71-4.7,8.56-.04,7.25,1.87,18.21,2.21,25.97.21,4.87-2.37,14.03-2.76,19.34-.01.2,1.69,2.03,1.1,3.87s-4.41,1.14-5.52,4.7c-3.28-43.32.65-84.57,9.94-126.52,4.8.2,9.69-3.52,11.05-8.01.21-.7-1.54-.53-.55-3.31.86-2.42,9.34-10.2,11.05-12.71,4.43-6.49,5.75-13.42,11.33-19.61.15-.17,2.26-.07,4.14-1.93,2.08-2.05,3.54-7.87,8.29-8.01h.01Z"/>
        <path class="st5" d="M419.5,24.3c.39,2.17,2.49,5.61,2.76,8.01,1.19,10.49-3.41,24.82-9.39,33.43-.15-.04-1.8,1.02-3.04.55-1.9-.72-2.02-4.47-2.49-6.08-1.34-4.65-3.82-15.84-3.87-20.44-.04-4.09-.01-6.13,2.76-9.39,1.95-2.29,9.98-7.02,13.26-6.08h0Z"/>
        <path class="st23" d="M359.83,177.34c-.12-2.9.39-5.49.55-8.29-.11,2.64-.56,5.77-.55,8.29Z"/>
        <path class="st23" d="M359.83,177.34c0,.77,1.29,3.32.83,4.42-1.49-1.15-.77-3-.83-4.42Z"/>
        <path class="st23" d="M360.39,169.05c.07-1.21.54-2.1.55-2.21-.06,1.26-.55,2.1-.55,2.21Z"/>
        <path class="st10" d="M402.37,25.96c1.29.73,2.8.2,2.76,1.38-.07,2.26-6.21-.9,1.1,3.04-2.77,3.27-2.8,5.3-2.76,9.39-4.75.14-6.21,5.96-8.29,8.01-1.89,1.86-3.99,1.76-4.14,1.93-5.58,6.19-6.9,13.12-11.33,19.61-1.71,2.51-10.19,10.29-11.05,12.71-.98,2.78.76,2.61.55,3.31-1.36,4.49-6.25,8.21-11.05,8.01,1.23-5.55,2.72-11.18,3.31-16.85l12.15-40.33c6.14,1.11,7.9-10.55,12.98-11.88.54-.14,10.4-.64,11.05-.55.38.05,4.04,1.83,4.7,2.21h.02Z"/>
        <path class="st20" d="M412.32,14.91c1.13,1.39,2.2,5.2,1.66,6.91-2.05,3.34-4.64,1.9-7.18,2.49-6.51-.98-12.11-9.85-4.7-13.81,2.51,1.54,8.19,1.93,10.22,4.42h0Z"/>
      </g>
      <path class="st21" d="M328.34,133.69c.04-.53-.22-1.12.55-1.1-.03.53.21,1.12-.55,1.1Z"/>
      <path class="st21" d="M418.95,199.44s-.5-.18-1.1-.55c.15.1.45.12,1.1.55Z"/>
      <path class="st21" d="M419.5,199.99c-.48-.36-.52-.53-.55-.55.21.2.36.35.55.55Z"/>
      <path class="st21" d="M417.29,198.33s-.65.07-.55-.55c.61.39.52.53.55.55Z"/>
      <path class="st21" d="M416.19,197.78c-.69-.44-.66-.62-1.1-1.1.32.2,1.41-.41,1.1,1.1Z"/>
      <path class="st21" d="M78.07,220.43c-.1-.63.53-.52.55-.55.06.46-.13.54-.55.55Z"/>
      <path class="st21" d="M70.89,221.54c0,.78-1.1.64-1.66.55.06-.95,1.08-.42,1.66-.55Z"/>
      <path class="st21" d="M332.76,81.76c.03-.42.08-.61.55-.55-.05.41-.07.61-.55.55Z"/>
      <path class="st21" d="M94.64,197.23c.03-.42.08-.61.55-.55-.05.41-.07.61-.55.55Z"/>
      <path class="st21" d="M415.08,196.67s-.65.07-.55-.55c.71.36.52.53.55.55Z"/>
      <path class="st21" d="M552.1,261.87c-.1-.64.56-.51.55-.55-.33.43-.52.52-.55.55Z"/>
      <path class="st21" d="M550.99,262.97c.08-.37.02-.62.55-.55-.03.03.07.65-.55.55Z"/>
      <path class="st21" d="M550.99,264.08c-.05.08-.5-.08-.55,0,.03-.03-.07-.65.55-.55-.07.17.07.42,0,.55Z"/>
      <path class="st21" d="M550.44,264.63c-.08.09-.46-.09-.55,0,.31-.41.41-.41.55-.55-.08.13.09.45,0,.55Z"/>
      <path class="st21" d="M332.21,94.47l.55-.55c.07.41-.14.61-.55.55Z"/>
      <path class="st21" d="M549.89,265.18h-.55c-.1-.63.53-.52.55-.55-.08.08.05.38,0,.55Z"/>
      <path class="st21" d="M333.87,73.47c.1-.22-.05-.64.55-.55.09.38-.16.62-.55.55Z"/>
      <path class="st21" d="M326.13,170.71c.11-.41-.28-1.13.55-1.1.06.55.15,1.13-.55,1.1Z"/>
      <path class="st21" d="M417.84,198.88c-.59-.36-.46-.45-.55-.55.61.39.52.53.55.55Z"/>
      <path class="st21" d="M328.34,134.8v-.55c1.17.27,0,.53,0,.55Z"/>
      <path class="st21" d="M326.68,161.87v-1.1c1.48.6.02,1.05,0,1.1Z"/>
      <path class="st21" d="M326.68,158.55v-1.66,1.66Z"/>
      <g>
        <path class="st36" d="M511.77,24.3c.22,1.03,1.41,6.4,1.66,6.91s2.64,1.64,3.31,3.31c.28.69-.27,2.57,0,3.31.31.86,3.3,6.79,3.31,7.18.07,1.63-2.49,3.26-2.21,5.52.07.53,1.54.02,1.66.55.12.57-4.55,9.94-4.97,10.5-3.68,4.87-12.61,12.41-17.13,17.13-.21.22-1.13,3.87-2.49,5.25-2.32,2.36-12.62,6.06-13.54,10.22-.05.22,3.82,1.99,3.87,2.21.22,1.09-8.45,3.72-9.94,4.97-5.8,4.85-9.33,20.51-16.02,25.69.4-13.13,5.37-23.74,13.81-33.98,8.96-10.87,35.07-25.56,24.59-41.16-6.05-1.7-25.27,23.16-29.01,28.45-4.17,5.92-8.34,12.6-11.6,19.06-3.52-1.43-1.56-5.29-2.21-8.01-.36-1.48-3.28-6.79-3.31-7.18-.13-1.32,3.35-4.15,3.31-4.42-.06-.46-4.98-1.73-3.87-4.14.96-1.43,8.46-10.12,8.29-10.77-.09-.33-2.05-.74-2.21-1.1-.48-1.1-.42-3.43-1.1-4.42-.28-.41-4.42.2-1.1-5.52.38-.66,8.81-10.48,9.67-11.33,2.37-2.35,12.03-6.17,8.01-9.39,11.88-7.59,24.13-11.06,39.23-8.84h0Z"/>
        <path class="st27" d="M531.66,32.04c-2.81,4.97,3.85,9.38,3.31,14.92-4.7,2.11-4.24,13.49,0,15.47-3.6.88-5.1,4.78-7.46,6.63-.18.14-3.98.73-4.42,1.1-.94.81-11.28,11.59-11.33,12.43-.01.18,2.27,1.74,1.66,3.31-.78,2.02-10.57,6.34-12.98,8.01-1.64,1.13-2.39,4.37-4.97,5.52-3.36,1.5-3.12-.08-3.31,0-2,.83-4.61,2.29-6.91,3.31-5.12,2.28-11.98,8.55-15.47,13.54-8.83,12.61-7.02,23.01-1.66,35.36.19.44.22,2.61.55,3.31.27.59,1.2-.92,1.66,0,.24.49-1,1.39-.55,2.21.54.99,2.65,2.02,2.76,2.21.37.63.48,3.26,1.66,4.97.51.74,4.19,4.96,5.52,4.7.96,1.66,3.02,5.94,3.31,6.35.78,1.09,3.68,2.51,3.87,2.76.22.3-.22,1.91,0,2.21.45.61,1.79.08,1.93.28.61.84.05,2.17.28,2.49.14.21,3.76,2.99,3.87,3.31.45,1.41-.7,2.77-.55,4.14-16.76-21.71-34.12-31.81-33.15-63.54,6.7-5.18,10.22-20.84,16.02-25.69,1.49-1.25,10.17-3.88,9.94-4.97-.04-.22-3.92-1.99-3.87-2.21.91-4.16,11.21-7.86,13.54-10.22,1.36-1.38,2.27-5.03,2.49-5.25,4.51-4.71,13.45-12.25,17.13-17.13.42-.56,5.09-9.93,4.97-10.5-.11-.53-1.59-.03-1.66-.55-.28-2.26,2.28-3.9,2.21-5.52-.02-.4-3-6.32-3.31-7.18-.27-.74.28-2.63,0-3.31-.68-1.67-3.05-2.78-3.31-3.31s-1.44-5.87-1.66-6.91c7.47,1.1,13.57,3.79,19.89,7.73v.02Z"/>
        <path class="st21" d="M552.65,261.31c-.46-3.36.28-9.33.55-12.98.22-2.87,3.07-7.96-.55-8.84.35-4.47-.57-8.26-2.49-11.88-.1-.18-1.46.32-1.93-.28-.1-.13.54-2.45,0-3.31-1.77-2.83-4.17-6.02-6.35-8.56-.2-.23-1.94.37-2.49-.28s.61-1.59.55-1.66c-.73-.87-3.09-2.13-3.04-4.7-2.15,2.44-4.94-6-5.25-6.35-.33-.37-4.51-2.83-4.7-3.04-1.83-2.08-1.42-.84-1.93-1.38-.23-.24.23-2.52,0-2.76-.45-.48-2-2.03-2.49-2.49-.77-.72-4.53-1.74-4.7-1.93-.68-.77-.85-3.47-2.49-5.25-.39-.42-6.2-4.79-4.7-.55-2.53.55-1.33-1.61-1.66-1.93-5.22-5.2-7.71-7.8-13.26-11.33,1.9-3.73-2.96-3.26-3.87-3.87-.23-.44.23-2.09,0-2.49-.16-.28-2.57-1.35-2.76-1.66-1.77-2.73-9.34-14.22-9.94-16.57-.94-3.66.55-3.91.55-4.14,9.6,19.43,30.7,30.35,46.13,44.75,18.56,17.32,45.62,48.5,26.8,73.48h.02Z"/>
        <path class="st32" d="M552.65,261.31s-.65-.09-.55.55c-.22.26-.35.35-.55.55-.53-.06-.47.19-.55.55-.04.19.06.41,0,.55-.62-.1-.52.53-.55.55-.15.14-.24.14-.55.55-.02.03-.65-.08-.55.55v.55c-1.36,1.13-2.26,3.32-4.42,3.59,2.17-2.95,1.87-7.98,0-11.33,1.37-6.18-.32-4.69-.55-7.46-.63-7.6-2.09-23.45-4.42-29.83-2.68-7.33-4.45-2.94-5.52-3.87-.69-.59-.39-3.02-.55-3.31-.09-.17-2.16-1.53-2.21-1.66-.11-.25,1.09-2.36.55-3.31-.32-.56-3.38-.65-3.87-1.1-.13-.12-.16-2.27-1.1-3.31-2.59-2.85-6.85-5.48-7.18-9.94-4.36-2.44-6.48-6.42-9.39-9.12-1.5-4.24,4.31.13,4.7.55,1.63,1.78,1.81,4.48,2.49,5.25.17.19,3.93,1.22,4.7,1.93.49.45,2.04,2,2.49,2.49.23.25-.23,2.52,0,2.76.51.54.1-.7,1.93,1.38.18.21,4.37,2.67,4.7,3.04.31.35,3.1,8.79,5.25,6.35-.05,2.57,2.31,3.83,3.04,4.7.06.07-1.09,1.02-.55,1.66s2.29.05,2.49.28c2.18,2.54,4.58,5.73,6.35,8.56.54.87-.1,3.18,0,3.31.47.6,1.84.1,1.93.28,1.91,3.62,2.83,7.41,2.49,11.88,3.63.88.77,5.97.55,8.84-.27,3.65-1.01,9.62-.55,12.98h-.05Z"/>
        <path class="st19" d="M472.54,33.14c4.02,3.22-5.65,7.04-8.01,9.39-.85.85-9.29,10.67-9.67,11.33-3.32,5.72.82,5.12,1.1,5.52.69.99.63,3.32,1.1,4.42.16.36,2.12.78,2.21,1.1.18.66-7.33,9.34-8.29,10.77-1.77,2.64-6.34,9.06-7.18,11.05.14-1.85-4.33-3.84-4.42-4.14-1.24-4.18,5.66-10.97,0-13.54,9.98-14.13,18.29-26.41,33.15-35.91h0Z"/>
        <path class="st0" d="M531.1,106.62c-10.55,8.53-46.63,13.9-50.83,27.35-.76,2.45-.47,6.41-.55,9.12,0,.24-1.49.49-.55,4.14.61,2.36,8.17,13.85,9.94,16.57.2.3,2.6,1.38,2.76,1.66.23.39-.23,2.04,0,2.49-1.83-1.23-8.82-8.56-9.94-10.22-.9-1.33-7.02-13.47-7.18-14.36-.81-4.47,5.36-17.66,9.12-20.17,1.59-1.06,7.36-1.48,7.73-1.66,3.82-1.82,9.16-6.6,13.81-6.63.59,0-.37,1.47,1.1,1.66,1.32.16,22.09-8.63,24.59-9.94h0Z"/>
        <path class="st3" d="M459.28,127.06c-.97,31.72,16.39,41.83,33.15,63.54,16.86,21.83-9.87,11.1-19.61,2.76-28.27-24.18-31.86-62.01-15.75-93.92,3.26-6.46,7.43-13.14,11.6-19.06,3.73-5.29,22.96-30.15,29.01-28.45,10.48,15.6-15.62,30.29-24.59,41.16-8.44,10.24-13.41,20.85-13.81,33.98h0Z"/>
        <path class="st33" d="M479.72,169.05c-1.34.26-5.02-3.96-5.52-4.7-1.17-1.71-1.28-4.34-1.66-4.97-.11-.19-2.22-1.22-2.76-2.21-.45-.82.8-1.72.55-2.21-.46-.92-1.39.59-1.66,0-.33-.71-.36-2.88-.55-3.31-5.37-12.35-7.17-22.75,1.66-35.36,3.49-4.99,10.35-11.26,15.47-13.54v4.14l-13.26,9.39c-7.83,14.04-5.42,22.54,0,35.91.34.83-1.05,2.24-.55,3.31.18.38,3.34,4.69,4.42,6.63.38.68,3.23,2.56,3.31,2.76.58,1.44-1.15,1.2.55,4.14v.02Z"/>
        <path class="st0" d="M495.74,171.81c-1.03-.66-2.39-.47-2.49-.55-1.17-.99-.86-2.31-1.38-3.31.9.61,5.77.14,3.87,3.87h0Z"/>
        <g>
          <path class="st14" d="M531.1,106.62c-2.5,1.32-23.27,10.11-24.59,9.94-1.48-.18-.51-1.66-1.1-1.66-4.65.03-10,4.81-13.81,6.63-.37.18-6.14.6-7.73,1.66-3.76,2.5-9.92,15.7-9.12,20.17.16.89,6.28,13.04,7.18,14.36,1.13,1.66,8.12,8.99,9.94,10.22.52,1,.21,2.33,1.38,3.31.1.08,1.46-.1,2.49.55,5.55,3.53,8.04,6.12,13.26,11.33.33.32-.88,2.49,1.66,1.93,2.92,2.7,5.04,6.67,9.39,9.12.34,4.47,4.59,7.1,7.18,9.94.95,1.04.98,3.2,1.1,3.31.49.46,3.55.54,3.87,1.1.54.96-.66,3.06-.55,3.31.05.13,2.12,1.49,2.21,1.66.16.3-.13,2.72.55,3.31,1.07.93,2.85-3.46,5.52,3.87,2.33,6.39,3.79,22.23,4.42,29.83.23,2.77,1.92,1.28.55,7.46-.3,1.37-2.62,6.17-2.76,6.91-.21,1.14,1.16.74,1.1,1.1-.15.96-1.09,2.09-1.1,2.21-.01.15,1.4,2.17,1.1,2.76-1.1,2.19-19.29,7.71-22.38,8.01-43.05,4.22-68.33-47.96-91.99-75.41l4.7-4.14,10.5,13.81c8.99-4.75.85-6.31,1.38-10.22.4-2.92,4.23-3,6.08-1.66-.64-2.69-9.72-11.06-9.94-12.15-.24-1.16,2.58-7.77,2.21-8.84-.43-1.24-2.34-.53-2.76-1.1-.48-.65.72-1.64.55-2.21-.62-2.07-2.62-7.14-2.76-8.84-.04-.49,1.62-4.18,1.66-5.52.02-.75-1.73-2.51-1.66-3.87.02-.42,2.72-6.24,2.76-7.18.08-1.89-1.66-3.13-1.66-3.31.05-8.93-1.16-22.49.55-29.83.03-.14-1.13-.95-1.1-1.1.2-1.32,2.03-.31,2.21-.55.48-.64,3.85-6.25,3.87-6.63.09-2.54-2.67-2.02-2.76-2.21-1.14-2.37,1.61-3.11,1.66-3.31.29-1.36-.35-3.76,0-4.97.41-1.41,3.53-2.32,1.93-4.7s-6.24.63-2.49-8.29c.84-1.99,5.42-8.41,7.18-11.05-1.11,2.41,3.8,3.68,3.87,4.14.04.27-3.44,3.1-3.31,4.42.04.39,2.96,5.7,3.31,7.18.65,2.72-1.31,6.58,2.21,8.01-16.11,31.91-12.52,69.74,15.75,93.92,9.74,8.33,36.47,19.07,19.61-2.76-.15-1.38,1.01-2.74.55-4.14-.11-.33-3.72-3.11-3.87-3.31-.22-.32.33-1.65-.28-2.49-.14-.19-1.49.33-1.93-.28-.22-.3.22-1.91,0-2.21-.19-.25-3.09-1.67-3.87-2.76-.3-.41-2.36-4.69-3.31-6.35-1.7-2.95.03-2.7-.55-4.14-.08-.2-2.94-2.08-3.31-2.76-1.08-1.94-4.24-6.25-4.42-6.63-.5-1.07.89-2.49.55-3.31-5.42-13.37-7.83-21.87,0-35.91l13.26-9.39v-4.14c2.3-1.02,4.91-2.48,6.91-3.31.19-.08-.04,1.5,3.31,0,2.58-1.15,3.33-4.39,4.97-5.52,2.41-1.67,12.2-5.99,12.98-8.01.61-1.57-1.67-3.13-1.66-3.31.05-.84,10.38-11.62,11.33-12.43.44-.38,4.24-.96,4.42-1.1,2.36-1.85,3.86-5.75,7.46-6.63,10.44,4.88,11.69-20.73,0-15.47.53-5.54-6.12-9.95-3.31-14.92,30.18,18.83,32.25,57.29-.55,74.58v-.03Z"/>
          <g>
            <path class="st33" d="M495.74,103.86c-.97.3-2.09,1.14-3.31.28.91-.81,2.57-.24,3.31-.28Z"/>
            <path class="st33" d="M502.65,98.33l2.49.83c-.1.58-3.03.47-2.49-.83Z"/>
            <path class="st33" d="M470.61,122.09c.43,0,.43,2.76,0,2.76-.48-.45-.39-2.76,0-2.76Z"/>
            <path class="st33" d="M468.4,127.06c.19.24,1.27,2.2.55,2.21-.48,0-1.33-1.68-.55-2.21Z"/>
            <path class="st33" d="M535.25,68.5c.68,1.01.22,2.28-.55,1.1-.39-.6.21-.67.55-1.1Z"/>
            <path class="st33" d="M500.99,98.89c.06,0,1.12.81.55,1.1-1.42.75-1.59-.99-.55-1.1Z"/>
            <path class="st33" d="M509.28,95.02c.51.67.61,1.69-.55,1.66-.48,0,.4-1.3.55-1.66Z"/>
            <path class="st33" d="M510.94,93.36c.46.05,1.88-.2,1.93.28.04.35-2.49.66-1.93-.28Z"/>
            <path class="st33" d="M495.74,103.86c.08,0,.62-1.26,1.66-.28-.4.57-1.17.13-1.66.28Z"/>
            <path class="st33" d="M474.47,117.67h.55c1.09-.09,1.09.64,0,.55l-.55-.55Z"/>
            <polygon class="st33" points="499.34 100.54 499.61 101.37 498.78 101.65 498.51 101.37 499.34 100.54"/>
            <path class="st33" d="M486.08,108.28h.55c1.09-.09,1.09.64,0,.55l-.55-.55Z"/>
            <polygon class="st33" points="531.93 72.92 532.76 73.19 532.48 74.02 532.21 73.75 531.93 72.92"/>
            <path class="st33" d="M529.17,77.89c.27-.02.37.48.28.83-.31,2.06-.98-.79-.28-.83Z"/>
          </g>
        </g>
        <g>
          <path class="st4" d="M439.39,69.05c5.66,2.57-1.24,9.36,0,13.54.09.3,4.56,2.3,4.42,4.14-3.76,8.91.89,5.92,2.49,8.29s-1.52,3.28-1.93,4.7c-.35,1.21.29,3.61,0,4.97-.04.21-2.8.94-1.66,3.31.09.19,2.85-.33,2.76,2.21-.01.38-3.38,5.99-3.87,6.63-.18.24-2.01-.77-2.21.55-.02.15,1.14.97,1.1,1.1-1.71,7.35-.5,20.9-.55,29.83,0,.19,1.74,1.43,1.66,3.31-.04.95-2.74,6.77-2.76,7.18-.07,1.36,1.68,3.12,1.66,3.87-.03,1.35-1.7,5.04-1.66,5.52.14,1.7,2.14,6.77,2.76,8.84.17.57-1.03,1.56-.55,2.21.42.57,2.33-.13,2.76,1.1.37,1.07-2.45,7.68-2.21,8.84.23,1.09,9.3,9.46,9.94,12.15-1.85-1.34-5.68-1.27-6.08,1.66-.53,3.91,7.61,5.47-1.38,10.22l-10.5-13.81-4.7,4.14c23.66,27.46,48.94,79.63,91.99,75.41,3.09-.3,21.27-5.82,22.38-8.01.3-.59-1.12-2.61-1.1-2.76.01-.12.95-1.25,1.1-2.21.06-.37-1.32.03-1.1-1.1.14-.73,2.46-5.53,2.76-6.91,1.87,3.35,2.17,8.37,0,11.33,2.16-.28,3.06-2.46,4.42-3.59.34-.28.49-.49.55-.55.3-.26.48-.49.55-.55.3-.26.52-.53.55-.55.7-.55,1.87-2,2.76-1.38-4.62,6.86-11.93,12.08-19.61,15.19-48.36,19.63-75.53-38.11-102.49-66.85-4.41-4.7-7.23-7.41-12.15-11.05-.19-.2-.35-.36-.55-.55-.66-.44-.96-.46-1.1-.55-.03-.02.05-.17-.55-.55-.03-.02.06-.17-.55-.55-.13-.08-.42.08-.55,0,.31-1.52-.79-.9-1.1-1.1-.03-.02.16-.19-.55-.55-2.17-1.08-11.07-6.69-7.73-1.66-.29-.47-3.36-4.78-3.59-4.97-.26-.22-2.92.66-4.7-2.49-12.78-22.54-2.34-65.91,7.73-87.84,1.81-3.95,13.49-23.03,13.26-25.41-.12-1.26-1.56-1.38-2.21-2.76-1.35-2.88.48-3.79-4.42-5.25,5.98-8.61,10.58-22.93,9.39-33.43-.27-2.4-2.37-5.84-2.76-8.01-.21-1.19-.11-2.79.55-3.87,13.97,14.9,10.2,34.4,4.42,52.76-.9,2.86-8.68,19.41-8.29,20.44.23.61,4.45,1.42,4.7,1.38,3.66-.64,15.43-21.61,18.51-25.97h-.01Z"/>
          <path class="st21" d="M431.66,211.04c-5.37-.83-8.49-7.28-12.15-11.05,4.92,3.64,7.74,6.35,12.15,11.05Z"/>
          <path class="st17" d="M434.42,175.13c-4.8,2.76.8,10.69-.55,14.09-.45,1.13-1.87.2-1.93.28-1.07,1.22-2.32,3.71-2.49,3.87-.83.76-3.76,3.35-4.7,3.31-1.34-.05-2.58-2.7-2.76-2.76-1.3-.41-2.1,1.16-2.21,1.1-1.91-.88-4.59-3.2-5.8-4.97,1.6.57,3.94,2.47,4.97.83.14-.22.25-2.82.55-3.31.61-1,2.7-2.04,2.76-2.21,1.52-4.17-1.92-5.81-2.76-8.29-2.26-6.66-4.11-12.8-6.63-18.78-.82-1.94-3.75-3.43-3.31-5.52.1-.5,3.95-3.61,3.87-3.87-.2-.63-2.06.84-1.66-2.76.4-3.56,10.27-12.27,12.15-16.02,1.61-3.21,2.55-10.4,4.42-14.09,1.82,3.23,4.53,1.71,4.97,3.04.22.67-2.84,12-3.31,12.15-.51,14.96-.81,29.66,4.42,43.92h0Z"/>
          <path class="st31" d="M429.45,193.36c.17-.16,1.42-2.65,2.49-3.87.06-.07,1.48.86,1.93-.28,1.35-3.39-4.25-11.32.55-14.09.82,2.23,5.82,8.79,5.52,10.77-.3,1.98-2.65,2-2.76,2.21-1.11,2.02.65,4.6.55,4.97-.08.3-4.34,2.82-4.7,4.14l-3.59-3.87v.02Z"/>
          <g>
            <path class="st24" d="M428.34,116.01c-1.87,3.69-2.81,10.88-4.42,14.09-1.88,3.75-11.76,12.46-12.15,16.02-.4,3.6,1.45,2.13,1.66,2.76.08.26-3.76,3.37-3.87,3.87-.44,2.09,2.5,3.58,3.31,5.52,2.52,5.98,4.37,12.13,6.63,18.78.84,2.48,4.28,4.12,2.76,8.29-.06.17-2.15,1.21-2.76,2.21-.3.49-.41,3.09-.55,3.31-1.04,1.64-3.38-.26-4.97-.83-3.82-1.36-6.12-3.41-10.5-3.59-7.9-20.59-11.56-42.96-2.76-64.09.33-5.89,4.89-11.9,7.18-17.68.08-.21-.49-3.29,0-4.42.8-1.87,4.01-6.57,6.63-4.97,1.02.62-2.97,5.62-2.21,7.18.31.96,8.03-1.63,9.12-2.49,1.56-1.23,2.78-5.46,3.87-6.08.17-.1,1.76,1.52,3.31-.55l1.38,1.38c.34,1.29-1.35,7.15-1.1,7.73.33.79,1.97.92,2.21,1.66.85,2.59-3.9,10.46-3.87,11.05.02.34.64,0,1.1.83v.02Z"/>
            <path class="st2" d="M407.62,115.46c5.26-2.41,8.66,4.99,7.46,10.22-1.49,6.48-6.29,13.67-11.6,18.78-1.07,1.03-1.6,4.66-4.7,4.14-1.41-4.45,6.35-32.01,8.84-33.15h0Z"/>
            <path class="st1" d="M400.99,160.76c2.97-2.44,5.87,8.65,6.91,9.67.44.43,3.25.54,3.59.83,3.27,2.69,2.49,9.57.55,13.26-1.26-.81-2.4-.75-3.59-1.93-.94-.94-9.41-20.22-7.46-21.82h0Z"/>
          </g>
        </g>
      </g>
    </g>
  </g>
</svg>